<svg xmlns="http://www.w3.org/2000/svg" viewBox="0 0 32 32"><defs><style>.cls-1{fill:#44d62c;}</style></defs><title>icon</title><g id="Layer_2" data-name="Layer 2"><path class="cls-1" d="M16,30A14,14,0,1,1,30,16,14,14,0,0,1,16,30ZM16,3.06A12.94,12.94,0,1,0,28.94,16,12.95,12.95,0,0,0,16,3.06Z"/><path class="cls-1" d="M25.13,17.63c0-.06,0-.11,0-.17L24.33,12a1.81,1.81,0,0,0-1.87-1.81H9.54A1.82,1.82,0,0,0,7.67,12l-.82,5.58s0,.09,0,.13a.6.6,0,0,0,0,.23l1,3.57a.53.53,0,0,0,.51.39H23.64a.53.53,0,0,0,.51-.39l1-3.57A.57.57,0,0,0,25.13,17.63ZM8.71,12.08c.09-.78.49-.88.83-.88H22.46c.34,0,.74.1.83.88v0l.8,5.43a.82.82,0,0,1-.82.82H8.73a.82.82,0,0,1-.83-.74Zm0,8.72-.39-1.43a1.47,1.47,0,0,0,.36,0H23.27a1.47,1.47,0,0,0,.36,0l-.39,1.43Z"/></g></svg>