<svg xmlns="http://www.w3.org/2000/svg" viewBox="0 0 32 32"><defs><style>.cls-1{fill:#44d62c;}</style></defs><title>icon</title><g id="Layer_2" data-name="Layer 2"><path class="cls-1" d="M16,30A14,14,0,1,1,30,16,14,14,0,0,1,16,30ZM16,3.06A12.94,12.94,0,1,0,28.94,16,12.95,12.95,0,0,0,16,3.06Z"/><path class="cls-1" d="M16.13,19A2.86,2.86,0,1,1,19,16.16,2.86,2.86,0,0,1,16.13,19Z"/><rect class="cls-1" x="15.6" y="17.4" width="1.06" height="12.08"/><path class="cls-1" d="M23.75,22.57a.51.51,0,0,1-.29-.08.54.54,0,0,1-.16-.73,10.3,10.3,0,0,0-.09-11.22.53.53,0,0,1,.15-.73.52.52,0,0,1,.73.15,11.37,11.37,0,0,1,.1,12.37A.51.51,0,0,1,23.75,22.57Z"/><path class="cls-1" d="M20.79,20.16a.54.54,0,0,1-.28-.08.52.52,0,0,1-.16-.73,5.89,5.89,0,0,0-.06-6.4.52.52,0,0,1,.16-.73.53.53,0,0,1,.73.15,7,7,0,0,1,.06,7.55A.54.54,0,0,1,20.79,20.16Z"/><path class="cls-1" d="M8.25,22.57a.51.51,0,0,1-.44-.24A11.37,11.37,0,0,1,7.91,10a.52.52,0,0,1,.73-.15.53.53,0,0,1,.15.73A10.32,10.32,0,0,0,8.7,21.76a.53.53,0,0,1-.16.73A.51.51,0,0,1,8.25,22.57Z"/><path class="cls-1" d="M11.21,20.16a.54.54,0,0,1-.45-.24,7,7,0,0,1,.07-7.55.53.53,0,0,1,.88.58,5.89,5.89,0,0,0-.06,6.4.52.52,0,0,1-.16.73A.57.57,0,0,1,11.21,20.16Z"/></g></svg>