<svg xmlns="http://www.w3.org/2000/svg" xmlns:xlink="http://www.w3.org/1999/xlink" viewBox="0 0 32 32"><defs><style>.cls-1{fill:none;}.cls-2{clip-path:url(#clip-path);}.cls-3{fill:#44d62c;}</style><clipPath id="clip-path"><path class="cls-1" d="M26.86,7.17a14,14,0,1,0-2,19.69A14,14,0,0,0,26.86,7.17Z"/></clipPath></defs><g id="Layer_2" data-name="Layer 2"><g class="cls-2"><path class="cls-3" d="M30.41,20.89a.91.91,0,1,0,0-1.82.9.9,0,0,0-.9.92A.91.91,0,0,0,30.41,20.89Z"/><path class="cls-3" d="M30.36,16.42a.91.91,0,0,0,0-1.82.91.91,0,0,0,0,1.82Z"/><path class="cls-3" d="M30.39,18.65a.91.91,0,1,0,0-1.81.91.91,0,1,0,0,1.81Z"/><path class="cls-3" d="M30.48,27.59a.92.92,0,0,0,.9-.92.91.91,0,1,0-.9.92Z"/><path class="cls-3" d="M30.43,23.12a.91.91,0,1,0-.92-.9A.91.91,0,0,0,30.43,23.12Z"/><path class="cls-3" d="M30.34,14.19a.91.91,0,1,0-.92-.9A.91.91,0,0,0,30.34,14.19Z"/><path class="cls-3" d="M30.45,25.35a.89.89,0,0,0,.9-.92.91.91,0,0,0-.92-.9.91.91,0,1,0,0,1.82Z"/><path class="cls-3" d="M31.22,30.57A.91.91,0,0,0,30,31.88C30.4,31.45,30.81,31,31.22,30.57Z"/><path class="cls-3" d="M30.5,29.82a.91.91,0,1,0-.92-.9A.92.92,0,0,0,30.5,29.82Z"/><path class="cls-3" d="M30.32,12a.91.91,0,1,0-.92-.9A.9.9,0,0,0,30.32,12Z"/><path class="cls-3" d="M27.53,20.92a.91.91,0,0,0,0-1.82.89.89,0,0,0-.9.92A.9.9,0,0,0,27.53,20.92Z"/><path class="cls-3" d="M27.49,16.45a.91.91,0,1,0-.92-.9A.92.92,0,0,0,27.49,16.45Z"/><path class="cls-3" d="M27.51,18.68a.9.9,0,0,0,.9-.92.91.91,0,1,0-.9.92Z"/><path class="cls-3" d="M27.58,25.38a.91.91,0,0,0,.9-.92.91.91,0,1,0-.9.92Z"/><path class="cls-3" d="M27.65,32.08a.91.91,0,1,0-.92-.9A.9.9,0,0,0,27.65,32.08Z"/><path class="cls-3" d="M27.62,29.85a.91.91,0,1,0-.91-.9A.91.91,0,0,0,27.62,29.85Z"/><path class="cls-3" d="M27.6,27.61a.91.91,0,1,0-.92-.9A.9.9,0,0,0,27.6,27.61Z"/><path class="cls-3" d="M27.56,23.15a.91.91,0,1,0-.92-.9A.91.91,0,0,0,27.56,23.15Z"/><path class="cls-3" d="M27.44,12a.91.91,0,1,0,0-1.81.91.91,0,1,0,0,1.81Z"/><path class="cls-3" d="M27.47,14.22a.91.91,0,0,0,0-1.82.91.91,0,0,0,0,1.82Z"/><path class="cls-3" d="M24.57,12a.91.91,0,0,0,.9-.92.91.91,0,0,0-1.82,0A.91.91,0,0,0,24.57,12Z"/><path class="cls-3" d="M24.59,14.25a.91.91,0,0,0,.9-.92.91.91,0,0,0-1.82,0A.92.92,0,0,0,24.59,14.25Z"/><path class="cls-3" d="M24.73,27.64a.91.91,0,1,0-.92-.9A.9.9,0,0,0,24.73,27.64Z"/><path class="cls-3" d="M24.75,29.88a.91.91,0,1,0-.92-.9A.91.91,0,0,0,24.75,29.88Z"/><path class="cls-3" d="M24.7,25.41a.91.91,0,1,0-.91-.9A.9.9,0,0,0,24.7,25.41Z"/><path class="cls-3" d="M24.61,16.48a.91.91,0,1,0-.91-.9A.91.91,0,0,0,24.61,16.48Z"/><path class="cls-3" d="M24.64,18.71a.91.91,0,0,0,.9-.92.91.91,0,0,0-1.82,0A.91.91,0,0,0,24.64,18.71Z"/><path class="cls-3" d="M24.66,20.94a.91.91,0,1,0-.92-.9A.9.9,0,0,0,24.66,20.94Z"/><path class="cls-3" d="M24.68,23.18a.91.91,0,0,0,.9-.92.9.9,0,0,0-.92-.9.91.91,0,0,0,0,1.82Z"/><path class="cls-3" d="M24.77,32.11a.91.91,0,1,0-.92-.9A.91.91,0,0,0,24.77,32.11Z"/><path class="cls-3" d="M21.72,14.28a.92.92,0,0,0,.9-.92.91.91,0,1,0-.9.92Z"/><path class="cls-3" d="M21.74,16.51a.91.91,0,1,0-.92-.9A.91.91,0,0,0,21.74,16.51Z"/><path class="cls-3" d="M21.69,12a.91.91,0,0,0,.91-.92.92.92,0,0,0-.92-.9.91.91,0,0,0,0,1.82Z"/><path class="cls-3" d="M21.79,21a.91.91,0,1,0-.92-.9A.89.89,0,0,0,21.79,21Z"/><path class="cls-3" d="M21.76,18.74a.91.91,0,1,0,0-1.82.91.91,0,1,0,0,1.82Z"/><path class="cls-3" d="M21.81,23.21a.91.91,0,1,0,0-1.82.9.9,0,0,0-.9.92A.91.91,0,0,0,21.81,23.21Z"/><path class="cls-3" d="M21.9,32.14a.91.91,0,1,0-.92-.9A.92.92,0,0,0,21.9,32.14Z"/><path class="cls-3" d="M21.83,25.44a.91.91,0,1,0-.92-.9A.91.91,0,0,0,21.83,25.44Z"/><path class="cls-3" d="M21.88,29.91a.91.91,0,0,0,0-1.82.91.91,0,0,0,0,1.82Z"/><path class="cls-3" d="M21.85,27.67a.89.89,0,0,0,.9-.92.91.91,0,0,0-.92-.9.92.92,0,0,0-.9.92A.91.91,0,0,0,21.85,27.67Z"/><path class="cls-3" d="M18.91,21a.91.91,0,1,0,0-1.82.92.92,0,0,0-.9.92A.91.91,0,0,0,18.91,21Z"/><path class="cls-3" d="M18.93,23.24a.91.91,0,0,0,0-1.82.89.89,0,0,0-.9.92A.9.9,0,0,0,18.93,23.24Z"/><path class="cls-3" d="M19,25.47a.91.91,0,1,0-.92-.9A.91.91,0,0,0,19,25.47Z"/><path class="cls-3" d="M18.87,16.54a.91.91,0,1,0,0-1.82.91.91,0,1,0,0,1.82Z"/><path class="cls-3" d="M19,29.93a.91.91,0,1,0-.92-.89A.9.9,0,0,0,19,29.93Z"/><path class="cls-3" d="M19,32.17a.91.91,0,1,0-.91-.9A.91.91,0,0,0,19,32.17Z"/><path class="cls-3" d="M19,27.7a.91.91,0,0,0,.9-.92.91.91,0,1,0-.9.92Z"/><path class="cls-3" d="M18.84,14.3a.91.91,0,1,0-.91-.9A.89.89,0,0,0,18.84,14.3Z"/><path class="cls-3" d="M18.89,18.77a.91.91,0,1,0-.92-.9A.91.91,0,0,0,18.89,18.77Z"/><path class="cls-3" d="M18.82,12.07a.9.9,0,0,0,.9-.92.91.91,0,1,0-.9.92Z"/><path class="cls-3" d="M16,16.57a.91.91,0,0,0,.9-.92.91.91,0,1,0-1.82,0A.92.92,0,0,0,16,16.57Z"/><path class="cls-3" d="M16,18.8a.91.91,0,1,0-.91-.9A.91.91,0,0,0,16,18.8Z"/><path class="cls-3" d="M16,21a.91.91,0,0,0,.9-.92.91.91,0,1,0-1.82,0A.91.91,0,0,0,16,21Z"/><path class="cls-3" d="M16,14.33a.91.91,0,0,0,.9-.92.91.91,0,0,0-1.82,0A.91.91,0,0,0,16,14.33Z"/><path class="cls-3" d="M16,12.1a.91.91,0,1,0-.92-.9A.9.9,0,0,0,16,12.1Z"/><path class="cls-3" d="M16.13,30a.91.91,0,1,0-.92-.9A.9.9,0,0,0,16.13,30Z"/><path class="cls-3" d="M16.11,27.73a.91.91,0,1,0-.92-.9A.9.9,0,0,0,16.11,27.73Z"/><path class="cls-3" d="M16.08,25.5a.91.91,0,0,0,.9-.92.9.9,0,0,0-.92-.9.91.91,0,0,0,0,1.82Z"/><path class="cls-3" d="M16.06,23.27a.91.91,0,1,0-.92-.9A.91.91,0,0,0,16.06,23.27Z"/><path class="cls-3" d="M16.15,32.2a.91.91,0,1,0-.92-.9A.91.91,0,0,0,16.15,32.2Z"/><path class="cls-3" d="M13.14,18.83a.91.91,0,1,0-.92-.9A.91.91,0,0,0,13.14,18.83Z"/><path class="cls-3" d="M13.16,21.06a.89.89,0,0,0,.9-.92.91.91,0,0,0-.92-.9.91.91,0,1,0,0,1.82Z"/><path class="cls-3" d="M13.21,25.53a.91.91,0,0,0,0-1.82.91.91,0,0,0-.9.92A.92.92,0,0,0,13.21,25.53Z"/><path class="cls-3" d="M13.23,27.76a.91.91,0,0,0,0-1.82.91.91,0,0,0,0,1.82Z"/><path class="cls-3" d="M13.25,30a.89.89,0,0,0,.9-.92.91.91,0,1,0-1.81,0A.89.89,0,0,0,13.25,30Z"/><path class="cls-3" d="M13.1,14.36a.91.91,0,0,0,.9-.92.92.92,0,0,0-.92-.9.91.91,0,0,0,0,1.82Z"/><path class="cls-3" d="M13.12,16.6a.92.92,0,0,0,.9-.92.91.91,0,1,0-.9.92Z"/><path class="cls-3" d="M13.07,12.13a.91.91,0,1,0-.92-.9A.91.91,0,0,0,13.07,12.13Z"/><path class="cls-3" d="M13.28,32.23a.91.91,0,0,0,0-1.82.91.91,0,1,0,0,1.82Z"/><path class="cls-3" d="M13.19,23.29a.91.91,0,1,0-.92-.9A.89.89,0,0,0,13.19,23.29Z"/><path class="cls-3" d="M10.2,12.16a.91.91,0,1,0-.92-.9A.92.92,0,0,0,10.2,12.16Z"/><path class="cls-3" d="M10.29,21.09a.91.91,0,1,0-.92-.9A.91.91,0,0,0,10.29,21.09Z"/><path class="cls-3" d="M10.22,14.39a.9.9,0,0,0,.9-.92.91.91,0,1,0-.9.92Z"/><path class="cls-3" d="M10.27,18.86a.91.91,0,1,0,0-1.82.91.91,0,0,0,0,1.82Z"/><path class="cls-3" d="M10.31,23.32a.91.91,0,1,0-.92-.9A.9.9,0,0,0,10.31,23.32Z"/><path class="cls-3" d="M10.24,16.62a.91.91,0,1,0-.91-.9A.89.89,0,0,0,10.24,16.62Z"/><path class="cls-3" d="M10.4,32.26a.91.91,0,0,0,.9-.92.89.89,0,0,0-.92-.9.91.91,0,0,0-.9.92A.92.92,0,0,0,10.4,32.26Z"/><path class="cls-3" d="M10.33,25.56a.91.91,0,0,0,0-1.82.89.89,0,0,0-.9.92A.9.9,0,0,0,10.33,25.56Z"/><path class="cls-3" d="M10.38,30a.91.91,0,0,0,.9-.92.91.91,0,1,0-.9.92Z"/><path class="cls-3" d="M10.36,27.79a.91.91,0,1,0-.92-.9A.91.91,0,0,0,10.36,27.79Z"/><path class="cls-3" d="M7.51,30.05a.91.91,0,0,0,.9-.92.92.92,0,0,0-.92-.9.91.91,0,0,0,0,1.82Z"/><path class="cls-3" d="M7.53,32.28a.91.91,0,1,0-.92-.9A.9.9,0,0,0,7.53,32.28Z"/><path class="cls-3" d="M7.44,23.35a.91.91,0,0,0,.9-.92.91.91,0,0,0-1.82,0A.91.91,0,0,0,7.44,23.35Z"/><path class="cls-3" d="M7.32,12.19a.91.91,0,1,0-.91-.9A.91.91,0,0,0,7.32,12.19Z"/><path class="cls-3" d="M7.46,25.59a.91.91,0,0,0,.9-.92.91.91,0,1,0-1.82,0A.92.92,0,0,0,7.46,25.59Z"/><path class="cls-3" d="M7.48,27.82a.91.91,0,0,0,.9-.92.9.9,0,0,0-.92-.9.91.91,0,0,0,0,1.82Z"/><path class="cls-3" d="M7.35,14.42a.91.91,0,1,0-.92-.9A.9.9,0,0,0,7.35,14.42Z"/><path class="cls-3" d="M7.37,16.65a.91.91,0,1,0-.92-.9A.9.9,0,0,0,7.37,16.65Z"/><path class="cls-3" d="M7.39,18.89a.91.91,0,0,0,.9-.92.91.91,0,0,0-1.82,0A.92.92,0,0,0,7.39,18.89Z"/><path class="cls-3" d="M7.41,21.12a.91.91,0,1,0-.91-.9A.91.91,0,0,0,7.41,21.12Z"/><path class="cls-3" d="M4.52,18.92a.91.91,0,1,0,0-1.82.9.9,0,0,0-.9.92A.91.91,0,0,0,4.52,18.92Z"/><path class="cls-3" d="M4.56,23.38a.89.89,0,0,0,.9-.92.91.91,0,0,0-.92-.9.91.91,0,0,0,0,1.82Z"/><path class="cls-3" d="M4.54,21.15a.91.91,0,1,0-.92-.9A.91.91,0,0,0,4.54,21.15Z"/><path class="cls-3" d="M4.61,27.85a.91.91,0,1,0-.92-.9A.92.92,0,0,0,4.61,27.85Z"/><path class="cls-3" d="M4.59,25.61a.91.91,0,1,0-.92-.9A.89.89,0,0,0,4.59,25.61Z"/><path class="cls-3" d="M4.63,30.08a.91.91,0,1,0,0-1.82.91.91,0,1,0,0,1.82Z"/><path class="cls-3" d="M4.65,32.31a.91.91,0,1,0-.91-.9A.89.89,0,0,0,4.65,32.31Z"/><path class="cls-3" d="M4.5,16.68a.91.91,0,0,0,.9-.92.91.91,0,0,0-1.82,0A.9.9,0,0,0,4.5,16.68Z"/><path class="cls-3" d="M4.47,14.45a.91.91,0,1,0-.92-.9A.91.91,0,0,0,4.47,14.45Z"/><path class="cls-3" d="M4.45,12.22a.91.91,0,1,0-.92-.9A.91.91,0,0,0,4.45,12.22Z"/><path class="cls-3" d="M1.76,30.11a.91.91,0,1,0-.92-.9A.91.91,0,0,0,1.76,30.11Z"/><path class="cls-3" d="M1.58,12.25a.91.91,0,1,0,0-1.82.91.91,0,0,0,0,1.82Z"/><path class="cls-3" d="M1.6,14.48a.91.91,0,0,0,0-1.82.91.91,0,0,0,0,1.82Z"/><path class="cls-3" d="M1.71,25.64a.91.91,0,1,0-.92-.9A.9.9,0,0,0,1.71,25.64Z"/><path class="cls-3" d="M1.78,32.34a.91.91,0,0,0,.9-.92.92.92,0,0,0-.92-.9.91.91,0,0,0,0,1.82Z"/><path class="cls-3" d="M1.62,16.71a.9.9,0,0,0,.9-.92.91.91,0,1,0-.9.92Z"/><path class="cls-3" d="M1.73,27.88a.91.91,0,0,0,0-1.82.89.89,0,0,0-.9.92A.9.9,0,0,0,1.73,27.88Z"/><path class="cls-3" d="M1.67,21.18a.91.91,0,1,0,0-1.82.91.91,0,0,0,0,1.82Z"/><path class="cls-3" d="M1.69,23.41a.91.91,0,1,0-.92-.9A.91.91,0,0,0,1.69,23.41Z"/><path class="cls-3" d="M1.64,18.94a.91.91,0,0,0,0-1.81.91.91,0,0,0,0,1.81Z"/><path class="cls-3" d="M30.29,9.72a.89.89,0,0,0,.9-.92.91.91,0,1,0-.9.92Z"/><path class="cls-3" d="M30.23,3a.91.91,0,0,0,.9-.92.91.91,0,0,0-1.82,0A.89.89,0,0,0,30.23,3Z"/><path class="cls-3" d="M30.27,7.49a.91.91,0,1,0-.92-.9A.91.91,0,0,0,30.27,7.49Z"/><path class="cls-3" d="M30.25,5.26a.91.91,0,1,0,0-1.82.91.91,0,0,0-.9.92A.92.92,0,0,0,30.25,5.26Z"/><path class="cls-3" d="M30.2.79a.91.91,0,0,0,.9-.92.9.9,0,0,0-.91-.9.91.91,0,0,0-.9.92A.9.9,0,0,0,30.2.79Z"/><path class="cls-3" d="M27.42,9.75a.91.91,0,0,0,0-1.82.91.91,0,1,0,0,1.82Z"/><path class="cls-3" d="M27.38,5.28a.91.91,0,1,0,0-1.81.91.91,0,1,0,0,1.81Z"/><path class="cls-3" d="M27.33.82a.91.91,0,0,0,.9-.92.91.91,0,0,0-.92-.9.92.92,0,0,0-.9.92A.92.92,0,0,0,27.33.82Z"/><path class="cls-3" d="M27.35,3.05a.91.91,0,0,0,0-1.82.91.91,0,1,0,0,1.82Z"/><path class="cls-3" d="M27.4,7.52a.91.91,0,1,0,0-1.82.91.91,0,0,0,0,1.82Z"/><path class="cls-3" d="M24.48,3.08a.91.91,0,1,0-.92-.9A.91.91,0,0,0,24.48,3.08Z"/><path class="cls-3" d="M24.46.85a.92.92,0,0,0,.9-.92.91.91,0,0,0-.92-.9.91.91,0,0,0-.9.92A.91.91,0,0,0,24.46.85Z"/><path class="cls-3" d="M24.5,5.31a.91.91,0,1,0-.92-.9A.9.9,0,0,0,24.5,5.31Z"/><path class="cls-3" d="M24.55,9.78a.91.91,0,1,0-.92-.9A.9.9,0,0,0,24.55,9.78Z"/><path class="cls-3" d="M24.52,7.55a.91.91,0,0,0,0-1.82.89.89,0,0,0-.9.92A.9.9,0,0,0,24.52,7.55Z"/><path class="cls-3" d="M21.67,9.81a.91.91,0,1,0-.92-.9A.91.91,0,0,0,21.67,9.81Z"/><path class="cls-3" d="M21.65,7.58a.91.91,0,1,0,0-1.82.91.91,0,0,0-.9.92A.92.92,0,0,0,21.65,7.58Z"/><path class="cls-3" d="M21.63,5.34a.91.91,0,0,0,.9-.92.91.91,0,1,0-1.82,0A.89.89,0,0,0,21.63,5.34Z"/><path class="cls-3" d="M21.58.88a.91.91,0,0,0,.9-.92.9.9,0,0,0-.92-.9.91.91,0,0,0-.9.92A.92.92,0,0,0,21.58.88Z"/><path class="cls-3" d="M21.6,3.11a.91.91,0,1,0-.91-.9A.9.9,0,0,0,21.6,3.11Z"/><path class="cls-3" d="M18.8,9.84a.91.91,0,1,0,0-1.82.91.91,0,0,0,0,1.82Z"/><path class="cls-3" d="M18.78,7.61a.92.92,0,0,0,.9-.92.91.91,0,1,0-.9.92Z"/><path class="cls-3" d="M18.75,5.37a.89.89,0,0,0,.9-.92.91.91,0,0,0-.92-.9.91.91,0,0,0,0,1.82Z"/><path class="cls-3" d="M18.71.91a.92.92,0,0,0,.9-.92.91.91,0,0,0-.92-.9.9.9,0,0,0-.9.92A.91.91,0,0,0,18.71.91Z"/><path class="cls-3" d="M18.73,3.14a.91.91,0,1,0-.92-.9A.91.91,0,0,0,18.73,3.14Z"/><path class="cls-3" d="M15.92,9.87A.91.91,0,1,0,15,9,.91.91,0,0,0,15.92,9.87Z"/><path class="cls-3" d="M15.83.94a.91.91,0,0,0,.9-.92.9.9,0,0,0-.91-.9.89.89,0,0,0-.9.92A.9.9,0,0,0,15.83.94Z"/><path class="cls-3" d="M15.86,3.17a.91.91,0,1,0-.92-.9A.91.91,0,0,0,15.86,3.17Z"/><path class="cls-3" d="M15.88,5.4a.91.91,0,0,0,.9-.92.91.91,0,1,0-.9.92Z"/><path class="cls-3" d="M15.9,7.63a.91.91,0,1,0-.92-.9A.9.9,0,0,0,15.9,7.63Z"/><path class="cls-3" d="M13.05,9.9a.91.91,0,1,0-.92-.9A.91.91,0,0,0,13.05,9.9Z"/><path class="cls-3" d="M13,5.43a.91.91,0,1,0-.91-.9A.9.9,0,0,0,13,5.43Z"/><path class="cls-3" d="M13,3.2a.91.91,0,0,0,.9-.92.9.9,0,0,0-.92-.9A.91.91,0,1,0,13,3.2Z"/><path class="cls-3" d="M13,1a.9.9,0,0,0,.9-.91.91.91,0,0,0-.92-.9.9.9,0,0,0-.9.91A.91.91,0,0,0,13,1Z"/><path class="cls-3" d="M13,7.66a.91.91,0,1,0-.92-.9A.9.9,0,0,0,13,7.66Z"/><path class="cls-3" d="M10.18,9.93a.91.91,0,1,0,0-1.82.91.91,0,0,0,0,1.82Z"/><path class="cls-3" d="M10.15,7.69a.89.89,0,0,0,.9-.92.91.91,0,0,0-.92-.9.91.91,0,1,0,0,1.82Z"/><path class="cls-3" d="M10.13,5.46a.91.91,0,1,0-.92-.9A.91.91,0,0,0,10.13,5.46Z"/><path class="cls-3" d="M10.09,1A.9.9,0,0,0,11,.08a.91.91,0,0,0-.92-.9.89.89,0,0,0-.9.91A.89.89,0,0,0,10.09,1Z"/><path class="cls-3" d="M10.11,3.23a.91.91,0,1,0,0-1.82.9.9,0,0,0-.9.92A.91.91,0,0,0,10.11,3.23Z"/><path class="cls-3" d="M7.21,1A.9.9,0,0,0,8.11.1a.91.91,0,0,0-.92-.9.92.92,0,0,0-.9.92A.91.91,0,0,0,7.21,1Z"/><path class="cls-3" d="M7.28,7.72a.91.91,0,0,0,.9-.92.91.91,0,1,0-.9.92Z"/><path class="cls-3" d="M7.26,5.49a.91.91,0,1,0-.92-.9A.91.91,0,0,0,7.26,5.49Z"/><path class="cls-3" d="M7.23,3.26a.91.91,0,0,0,0-1.82.89.89,0,0,0-.9.92A.9.9,0,0,0,7.23,3.26Z"/><path class="cls-3" d="M7.3,10a.91.91,0,1,0-.92-.9A.9.9,0,0,0,7.3,10Z"/><path class="cls-3" d="M4.4,7.75a.91.91,0,1,0-.91-.9A.9.9,0,0,0,4.4,7.75Z"/><path class="cls-3" d="M4.43,10a.91.91,0,1,0-.92-.9A.9.9,0,0,0,4.43,10Z"/><path class="cls-3" d="M4.36,3.28a.91.91,0,1,0-.92-.89A.9.9,0,0,0,4.36,3.28Z"/><path class="cls-3" d="M4.38,5.52a.91.91,0,0,0,.9-.92.9.9,0,0,0-.92-.9.91.91,0,0,0,0,1.82Z"/><path class="cls-3" d="M4.34,1.05a.91.91,0,0,0,.9-.92.92.92,0,0,0-.92-.9.91.91,0,0,0,0,1.82Z"/><path class="cls-3" d="M1.46,1.08a.9.9,0,0,0,.9-.92.91.91,0,0,0-.92-.9.92.92,0,0,0-.9.92A.91.91,0,0,0,1.46,1.08Z"/><path class="cls-3" d="M1.51,5.55a.91.91,0,1,0,0-1.82.91.91,0,0,0,0,1.82Z"/><path class="cls-3" d="M1.49,3.31a.91.91,0,1,0,0-1.81.91.91,0,1,0,0,1.81Z"/><path class="cls-3" d="M1.55,10a.89.89,0,0,0,.9-.92.91.91,0,1,0-1.81,0A.89.89,0,0,0,1.55,10Z"/><path class="cls-3" d="M1.53,7.78A.91.91,0,0,0,1.51,6a.91.91,0,0,0,0,1.82Z"/></g><path class="cls-3" d="M16,30A14,14,0,1,1,30,16,14,14,0,0,1,16,30ZM16,3.06A12.94,12.94,0,1,0,28.94,16,12.95,12.95,0,0,0,16,3.06Z"/></g></svg>