<svg xmlns="http://www.w3.org/2000/svg" viewBox="0 0 32 32">
  <defs>
    <style>
      .cls-1 {
        fill: #44d62c;
      }
    </style>
  </defs>
  <title>icon</title>
  <g id="Layer_2" data-name="Layer 2">
    <g>
      <path class="cls-1" d="M16,2A14,14,0,1,0,30,16,14,14,0,0,0,16,2Zm0,26.91A12.91,12.91,0,1,1,28.91,16,12.92,12.92,0,0,1,16,28.91Z"/>
      <path class="cls-1" d="M18.87,17.33a1.94,1.94,0,0,0-1.32-2.06,2.53,2.53,0,0,0,1.15-2.14c0-1.58-.75-2.41-2.94-2.41a8.93,8.93,0,0,0-2.54.42l.12,1.1A13.88,13.88,0,0,1,15.67,12c1.07,0,1.51.44,1.51,1.23a1.59,1.59,0,0,1-1.31,1.54H14.12V16h1.75a1.36,1.36,0,0,1,1.49,1.39c0,.94-.52,1.44-1.58,1.44a15,15,0,0,1-2.56-.26l-.09,1.13a13.07,13.07,0,0,0,2.84.4C18,20.08,18.87,19.13,18.87,17.33Z"/>
      <path class="cls-1" d="M22.49,19.33a3.06,3.06,0,0,1-3.19,2.9H12.7a3.06,3.06,0,0,1-3.19-2.9V10.55H8.41v8.78a4.16,4.16,0,0,0,4.29,4h6.6a4.16,4.16,0,0,0,4.29-4V10.55h-1.1Z"/>
    </g>
  </g>
</svg>
