<?xml version="1.0" encoding="UTF-8"?><svg id="Layer_2" xmlns="http://www.w3.org/2000/svg" viewBox="0 0 32 32"><defs><style>.cls-1{fill:#44d62c;}</style></defs><g id="Layer_2-2"><path class="cls-1" d="m16.1,22.5c-3.5,0-6.4-2.9-6.4-6.4s2.9-6.4,6.4-6.4,6.4,2.9,6.4,6.4h0c0,3.5-2.8,6.3-6.4,6.4Zm0-11.8c-2.9,0-5.3,2.4-5.3,5.3s2.4,5.3,5.3,5.3,5.3-2.4,5.3-5.3-2.3-5.3-5.3-5.3Z"/><path class="cls-1" d="m16,30c-7.7,0-14-6.3-14-14S8.3,2,16,2s14,6.3,14,14-6.3,14-14,14Zm0-27c-7.2,0-13,5.8-13.1,12.9-.1,7.1,5.8,13.1,13,13.1s13-5.8,13.1-12.9v-.1c-.1-7.2-5.8-13-13-13Z"/><path class="cls-1" d="m16.1,6.2c-.3,0-.5-.2-.5-.5v-2.5c0-.3.2-.5.5-.5s.5.2.5.5v2.5c0,.3-.2.5-.5.5h0Z"/><path class="cls-1" d="m23.9,9.4c-.1,0-.3-.1-.4-.2-.2-.2-.2-.5,0-.7l1.8-1.8c.2-.2.5-.2.8,0s.2.5,0,.8l-1.8,1.8c-.1.1-.2.2-.4.1Z"/><path class="cls-1" d="m8.2,9.4c-.1,0-.3-.1-.4-.2l-1.7-1.7c-.2-.2-.2-.5,0-.7h0c.2-.2.5-.2.7,0l1.8,1.8c.2.2.2.5,0,.7h0c-.1.1-.2.2-.4.1Z"/><path class="cls-1" d="m29.5,17.3h-2.5c-.3,0-.5-.2-.5-.5s.2-.5.5-.5h2.5c.3,0,.5.2.5.5s-.2.5-.5.5h0Z"/><path class="cls-1" d="m5.2,17.3h-2.5c-.3,0-.5-.2-.5-.5s.2-.5.5-.5h2.5c.3,0,.5.2.5.5s-.2.5-.5.5Z"/><path class="cls-1" d="m10.6,14.1l.4-.8c-2.3-1.1-4.4-1.9-4.5-1.8-.1.2,1.9,1.3,4.1,2.6Z"/></g></svg>