<svg xmlns="http://www.w3.org/2000/svg" viewBox="0 0 32 32"><defs><style>.cls-1{fill:#44d62c;}</style></defs><title>icon</title><g id="Layer_2" data-name="Layer 2"><path class="cls-1" d="M16,19.26c-2.91,0-4.58-2.88-4.65-3a.54.54,0,0,1,0-.51c.07-.13,1.69-3,4.6-3s4.58,2.88,4.65,3a.54.54,0,0,1,0,.51C20.56,16.38,18.94,19.26,16,19.26ZM12.46,16A4.76,4.76,0,0,0,16,18.21,4.6,4.6,0,0,0,19.54,16,4.78,4.78,0,0,0,16,13.79,4.6,4.6,0,0,0,12.46,16Z"/><path class="cls-1" d="M17.44,16A1.44,1.44,0,1,0,16,17.44,1.43,1.43,0,0,0,17.44,16Z"/><path class="cls-1" d="M16,30A14,14,0,1,1,30,16,14,14,0,0,1,16,30ZM16,3.06A12.94,12.94,0,1,0,28.94,16,12.95,12.95,0,0,0,16,3.06Z"/><path class="cls-1" d="M23.57,21.39H8.43a.53.53,0,0,1-.53-.53V11.65a1,1,0,0,1,1-1H23.06a1,1,0,0,1,1,1v9.21A.53.53,0,0,1,23.57,21.39ZM9,20.33H23V11.67H8.94Z"/></g></svg>