<?xml version="1.0" encoding="UTF-8"?>
<svg id="Layer_2" data-name="Layer 2" xmlns="http://www.w3.org/2000/svg" viewBox="0 0 32 32">
  <defs>
    <style>
      .cls-1 {
        fill: #38d430;
      }

      .cls-1, .cls-2 {
        stroke-width: 0px;
      }

      .cls-2 {
        fill: #44d62c;
      }
    </style>
  </defs>
  <path class="cls-1" d="M16.0548,29.9693c-7.7016.0302-13.9694-6.1887-13.9996-13.8903-.0302-7.7016,6.1887-13.9694,13.8903-13.9996,7.7016-.0302,13.9694,6.1887,13.9996,13.8903.0302,7.7016-6.1887,13.9694-13.8903,13.9996ZM15.95,3.2548c-7.0524.0276-12.7471,5.7672-12.7195,12.8196.0276,7.0524,5.7672,12.7471,12.8196,12.7195,7.0524-.0276,12.7471-5.7672,12.7195-12.8196-.0331-7.0501-5.7694-12.7416-12.8196-12.7195Z"/>
  <g>
    <polygon class="cls-2" points="23.304 21.5437 23.5645 21.9949 23.6435 21.9949 23.9028 21.5424 23.9028 22.2099 24 22.2099 24 21.4179 23.871 21.4179 23.6042 21.8807 23.3358 21.4179 23.2068 21.4179 23.2068 22.2099 23.304 22.2099 23.304 21.5437"/>
    <polygon class="cls-2" points="15.6062 20.1446 17.1108 20.3013 13.0909 23.6562 15.7803 22.2116 21.9099 22.2116 21.9099 10.0854 19.1629 10.0854 19.6187 8.3438 16.1869 14.3765 19.5115 14.3765 15.6062 20.1446"/>
    <polygon class="cls-2" points="13.5281 18.4953 14.4379 19.5813 16.2725 15.9394 13.1054 15.9394 15.5633 10.0854 9.7836 10.0854 9.7836 22.2116 13.2443 22.2116 13.5281 18.4953"/>
    <polygon class="cls-2" points="22.8048 22.2099 22.8048 21.506 23.1112 21.506 23.1112 21.4179 22.3995 21.4179 22.3995 21.506 22.7071 21.506 22.7071 22.2099 22.8048 22.2099"/>
  </g>
</svg>